<svg xmlns="http://www.w3.org/2000/svg" width="24" height="24" viewBox="0 0 24 24">
  <path fill="#fff" d="M12 2C6.48 2 2 6.48 2 12s4.48 10 10 10 10-4.48 10-10S17.52 2 12 2zm0 18c-4.41 0-8-3.59-8-8s3.59-8 8-8 8 3.59 8 8-3.59 8-8 8zm.31-9.94c-1.6 0-3 1.4-3 3 0 1.31.84 2.49 2.08 2.89.15.03.21-.06.21-.14v-.49c-.84.18-1.03-.41-1.03-.41-.14-.35-.34-.44-.34-.44-.28-.19.02-.19.02-.19.31.02.48.32.48.32.28.47.73.34.91.26.03-.2.11-.34.2-.42-.7-.08-1.44-.35-1.44-1.56 0-.34.12-.63.32-.85-.03-.08-.14-.4.03-.84 0 0 .27-.09.88.32.25-.07.52-.1.78-.1s.53.03.78.1c.61-.41.88-.32.88-.32.17.44.06.76.03.84.2.22.32.51.32.85 0 1.21-.74 1.48-1.45 1.56.11.09.21.27.21.55v.81c0 .08.06.18.22.14 1.24-.4 2.08-1.57 2.08-2.88 0-1.6-1.4-3-3-3z"/>
</svg> 