<svg xmlns="http://www.w3.org/2000/svg" width="24" height="24" viewBox="0 0 24 24">
  <path fill="#fff" d="M12 2C6.48 2 2 6.48 2 12s4.48 10 10 10 10-4.48 10-10S17.52 2 12 2zm5.17 14.71c-.71 1.96-2.44 3.37-4.52 3.73-2.07.36-4.23-.41-5.69-2.02-1.47-1.61-2.03-3.82-1.49-5.91.54-2.09 2.09-3.8 4.13-4.54 1.31-.47 2.7-.47 4 0-1.13.93-2.2 1.93-3.19 3-1.94-.03-1.94 2.95 0 2.92 1.1-.02 2.2-.04 3.3.03.17 1.21.12 2.43-.16 3.63 1.1-1.17 1.67-2.69 1.62-4.27-.6 0-1.2 0-1.8-.03 0-.63 0-1.25 0-1.88.94 0 1.89 0 2.85.03-.26 2.38.25 4.78 1.44 6.88-.53.01-1.04-.33-1.49-.57z"/>
</svg> 