<svg xmlns="http://www.w3.org/2000/svg" width="24" height="24" viewBox="0 0 24 24">
  <path fill="#fff" d="M20.99 16.04c-.46.35-1.55.95-2.99.95v-3.03c0-.8-.53-1.36-1.33-1.36-.33 0-.68.1-.96.28v4.11h-1.94V9.72l1.94-.3v2.3c.38-.32.8-.62 1.54-.62 1.52 0 2.74 1.16 2.74 2.94v1.99zm-8.95.93v-4.64c0-.8-.53-1.36-1.33-1.36-.55 0-1.06.24-1.52.6v5.4H7.26V9.75l1.94-.3v2.3c.52-.45 1.13-.77 1.97-.77 1.5 0 2.74 1.16 2.74 2.94v3.05h-1.87zM3 11.89v5.08h1.95v-3.08l1.49.02c.93.03 1.77-.88 1.77-2.12 0-1.32-.85-2.11-1.85-2.11H3v2.2l1.95.01v-.01H5c.45 0 .81.27.81.71 0 .43-.36.69-.81.69H3v-1.39z"/>
</svg> 