<svg xmlns="http://www.w3.org/2000/svg" width="24" height="24" viewBox="0 0 24 24">
  <path fill="#fff" d="M12 2C6.48 2 2 6.48 2 12c0 5.52 4.48 10 10 10s10-4.48 10-10c0-5.52-4.48-10-10-10zm-1.46 16.86c-.67 0-1.31-.26-1.77-.72-.45-.44-.69-1.03-.71-1.65l-2.72-3.97c-.28.46-.43.98-.43 1.48 0 1.66 1.34 3 3 3s3-1.34 3-3c0-1.66-1.34-3-3-3-.54 0-1.05.15-1.5.4l2.61 3.86c.46.68 1.25 1.1 2.09 1.1.59 0 1.15-.21 1.6-.57.45-.37.76-.89.88-1.45.11-.57.04-1.16-.22-1.67-.26-.52-.69-.93-1.21-1.19-.53-.26-1.12-.33-1.67-.22-.57.12-1.09.45-1.45.9l-3.8-2.54c.09-.43.29-.83.6-1.15.31-.32.7-.55 1.13-.67.44-.12.9-.12 1.33 0 .44.12.83.36 1.15.67.32.33.55.71.67 1.15.12.44.12.9 0 1.33-.12.44-.36.83-.67 1.15-.33.32-.71.55-1.15.67-.22.06-.45.09-.67.09z"/>
</svg>
